<svg width="23" height="22" viewBox="0 0 23 22" fill="none" xmlns="http://www.w3.org/2000/svg">
<path d="M21.5 15.92V18.92C21.5011 19.1985 21.4441 19.4742 21.3325 19.7294C21.2209 19.9845 21.0573 20.2136 20.8521 20.4019C20.6469 20.5901 20.4046 20.7335 20.1408 20.8227C19.8769 20.9119 19.5974 20.9451 19.32 20.92C16.2428 20.5856 13.287 19.5342 10.69 17.85C8.27383 16.3147 6.22534 14.2662 4.69 11.85C2.99998 9.24121 1.94824 6.271 1.62 3.18001C1.59501 2.90347 1.62788 2.62477 1.7165 2.36163C1.80513 2.09849 1.94757 1.85669 2.13477 1.65163C2.32196 1.44656 2.54981 1.28271 2.80379 1.17053C3.05778 1.05834 3.33234 1.00027 3.61 1.00001H6.61C7.09531 0.995229 7.56579 1.16708 7.93376 1.48354C8.30173 1.79999 8.54208 2.23945 8.61 2.72001C8.73662 3.68007 8.97145 4.62273 9.31 5.53001C9.44455 5.88793 9.47366 6.27692 9.39391 6.65089C9.31415 7.02485 9.12886 7.36812 8.86 7.64001L7.59 8.91001C9.01356 11.4136 11.0865 13.4865 13.59 14.91L14.86 13.64C15.1319 13.3711 15.4752 13.1859 15.8491 13.1061C16.2231 13.0263 16.6121 13.0555 16.97 13.19C17.8773 13.5286 18.8199 13.7634 19.78 13.89C20.2658 13.9585 20.7094 14.2032 21.0265 14.5775C21.3437 14.9518 21.5122 15.4296 21.5 15.92Z" stroke="#9CA3AF" stroke-width="2" stroke-linecap="round" stroke-linejoin="round"/>
</svg>
