<svg width="33" height="32" viewBox="0 0 33 32" fill="none" xmlns="http://www.w3.org/2000/svg">
<path d="M25.8334 22.6667H28.5C29.3 22.6667 29.8334 22.1333 29.8334 21.3333V17.3333C29.8334 16.1333 28.9 15.0667 27.8334 14.8C25.4334 14.1333 21.8334 13.3333 21.8334 13.3333C21.8334 13.3333 20.1 11.4667 18.9 10.2667C18.2334 9.73333 17.4334 9.33333 16.5 9.33333H7.16669C6.36669 9.33333 5.70002 9.86666 5.30002 10.5333L3.43335 14.4C3.25679 14.915 3.16669 15.4556 3.16669 16V21.3333C3.16669 22.1333 3.70002 22.6667 4.50002 22.6667H7.16669" stroke="#2563EB" stroke-width="2" stroke-linecap="round" stroke-linejoin="round"/>
<path d="M9.83335 25.3333C11.3061 25.3333 12.5 24.1394 12.5 22.6667C12.5 21.1939 11.3061 20 9.83335 20C8.36059 20 7.16669 21.1939 7.16669 22.6667C7.16669 24.1394 8.36059 25.3333 9.83335 25.3333Z" stroke="#2563EB" stroke-width="2" stroke-linecap="round" stroke-linejoin="round"/>
<path d="M12.5 22.6667H20.5" stroke="#2563EB" stroke-width="2" stroke-linecap="round" stroke-linejoin="round"/>
<path d="M23.1667 25.3333C24.6394 25.3333 25.8333 24.1394 25.8333 22.6667C25.8333 21.1939 24.6394 20 23.1667 20C21.6939 20 20.5 21.1939 20.5 22.6667C20.5 24.1394 21.6939 25.3333 23.1667 25.3333Z" stroke="#2563EB" stroke-width="2" stroke-linecap="round" stroke-linejoin="round"/>
</svg>
