<svg width="33" height="32" viewBox="0 0 33 32" fill="none" xmlns="http://www.w3.org/2000/svg">
<path d="M10.1562 5.69333L22.1563 12.56" stroke="#2563EB" stroke-width="2" stroke-linecap="round" stroke-linejoin="round"/>
<path d="M28.1563 10.6667C28.1558 10.199 28.0323 9.73975 27.7983 9.33489C27.5643 8.93002 27.2279 8.59382 26.8229 8.36L17.4896 3.02667C17.0842 2.79262 16.6243 2.6694 16.1563 2.6694C15.6882 2.6694 15.2283 2.79262 14.8229 3.02667L5.48958 8.36C5.0846 8.59382 4.74822 8.93002 4.5142 9.33489C4.28017 9.73975 4.15673 10.199 4.15625 10.6667V21.3333C4.15673 21.801 4.28017 22.2603 4.5142 22.6651C4.74822 23.07 5.0846 23.4062 5.48958 23.64L14.8229 28.9733C15.2283 29.2074 15.6882 29.3306 16.1563 29.3306C16.6243 29.3306 17.0842 29.2074 17.4896 28.9733L26.8229 23.64C27.2279 23.4062 27.5643 23.07 27.7983 22.6651C28.0323 22.2603 28.1558 21.801 28.1563 21.3333V10.6667Z" stroke="#2563EB" stroke-width="2" stroke-linecap="round" stroke-linejoin="round"/>
<path d="M4.55624 9.33333L16.1562 16L27.7562 9.33333" stroke="#2563EB" stroke-width="2" stroke-linecap="round" stroke-linejoin="round"/>
<path d="M16.1562 29.3333V16" stroke="#2563EB" stroke-width="2" stroke-linecap="round" stroke-linejoin="round"/>
</svg>
